<svg xmlns="http://www.w3.org/2000/svg" xmlns:xlink="http://www.w3.org/1999/xlink" version="1.1" id="svg-edited-version" x="0px" y="0px" viewBox="0 0 432 432" enable-background="new 0 0 432 432" xml:space="preserve" class="injected-svg" data-src="https://preview.pixlr.com/images/svg/102/1/72ab59b5a1f2a1216f5c15f328605109ff023ca856ac23a70a3e710b863e18fe.svg">
<g>
	<path fill="#EFD873" d="M204.271,294.495h1.034c-12.158,6.305-25.967,9.859-40.612,9.859c-48.798,0-88.353-39.555-88.353-88.353   c0-34.956,20.3-65.17,49.755-79.496c11.663-5.677,24.757-8.857,38.598-8.857c14.645,0,28.453,3.554,40.612,9.87   c-0.341-0.011-0.693-0.011-1.034-0.011c-22.226,0-42.306,9.242-56.588,24.096c-6.228,6.47-11.355,14.007-15.074,22.314   c-0.286,0.638-0.561,1.287-0.836,1.926c-3.862,9.286-5.997,19.475-5.997,30.159c0,0.88,0.011,1.76,0.044,2.63   c0.033,0.99,0.088,1.969,0.154,2.949C128.835,262.322,162.801,294.495,204.271,294.495z" originalFill="#EFD873"/>
	<path fill="#E0A6C2" d="M207.866,131.132c-2.995,0-5.565,1.808-6.685,4.391c-2.337-1.06-4.722-2.032-7.163-2.89   c-2.338-0.824-4.725-1.557-7.154-2.179c-4.188-1.087-8.491-1.868-12.892-2.326h-0.006c-3.046-0.317-6.141-0.482-9.272-0.482h-0.299   c-7.905,0.024-15.566,1.093-22.849,3.07c-2.661,0.714-5.274,1.557-7.826,2.515c-2.6,0.971-5.146,2.063-7.624,3.272   c5.445,6.556,15.145,17.855,21.591,25.095c0.507-0.525,1.019-1.044,1.538-1.55c2.448-2.411,5.048-4.658,7.795-6.721   c4.572-3.461,9.529-6.422,14.803-8.815c3.064-1.398,6.226-2.6,9.486-3.595c1.837-0.562,3.705-1.056,5.598-1.483   c2.112-0.476,4.255-0.867,6.428-1.172c2.399-0.336,4.834-0.551,7.295-0.664c-0.03,0.269-0.049,0.542-0.049,0.819   c0,4.024,3.262,7.286,7.285,7.286c4.024,0,7.286-3.262,7.286-7.286C215.151,134.394,211.889,131.132,207.866,131.132z" originalFill="#E0A6C2"/>
	<path fill="#E6E6E6" d="M143.731,134.929c0,2.851-2.301,5.152-5.146,5.152c-2.851,0-5.152-2.301-5.152-5.152   c0-0.592,0.098-1.166,0.287-1.697c2.552-0.958,5.164-1.801,7.826-2.515C142.864,131.645,143.731,133.183,143.731,134.929z" originalFill="#E6E6E6"/>
	<circle fill="#E6E6E6" cx="155.907" cy="140.084" r="5.152" originalFill="#E6E6E6"/>
	<path fill="#E6E6E6" d="M157.02,153.328c-2.747,2.063-5.347,4.31-7.795,6.721c-0.91-0.928-1.465-2.204-1.465-3.602   c0-2.845,2.307-5.152,5.152-5.152C154.584,151.295,156.067,152.095,157.02,153.328z" originalFill="#E6E6E6"/>
	<path fill="#E6E6E6" d="M174.24,129.783c0,2.845-2.307,5.146-5.152,5.146c-2.845,0-5.152-2.301-5.152-5.146   c0-0.763,0.165-1.489,0.458-2.137h0.299c3.131,0,6.226,0.165,9.272,0.482h0.006C174.142,128.648,174.24,129.203,174.24,129.783z" originalFill="#E6E6E6"/>
	<path fill="#E6E6E6" d="M181.309,140.918c-3.26,0.995-6.422,2.198-9.486,3.595c-0.055-0.305-0.085-0.623-0.085-0.946   c0-2.845,2.307-5.146,5.152-5.146C178.763,138.421,180.406,139.422,181.309,140.918z" originalFill="#E6E6E6"/>
	<path fill="#E6E6E6" d="M194.555,134.929c0,1.27-0.458,2.436-1.221,3.333c-2.173,0.305-4.316,0.696-6.428,1.172   c-1.581-0.873-2.655-2.564-2.655-4.505c0-1.923,1.05-3.595,2.613-4.474c2.43,0.623,4.816,1.355,7.154,2.179   C194.36,133.324,194.555,134.105,194.555,134.929z" originalFill="#E6E6E6"/>
	<g>
		<path d="M132.615,183.917c-0.287,0.635-0.568,1.282-0.836,1.929c-0.629,0.061-1.245,0.085-1.843,0.085    c-8.723,0-14.205-5.683-15.932-12.16l1.77-0.476C116.127,174.632,119.509,185.76,132.615,183.917z" fill="#000000" originalFill="#000000"/>
	</g>
	<g>
		<path fill="#E0A6C2" d="M125.974,221.578c-13.787-0.275-22.457-9.385-25.219-19.728l2.872-0.77    c0.528,1.981,5.16,17.231,22.193,17.55C125.853,219.62,125.908,220.599,125.974,221.578z" originalFill="#E0A6C2"/>
	</g>
	<g>
		<path d="M231.26,241.077c-0.165-0.032-0.248-0.06-0.332-0.062c-2.635-0.061-5.27-0.112-7.905-0.182    c-1.042-0.028-2.083-0.145-3.123-0.136c-1.732,0.016-3.464,0.101-5.237,0.159c-0.049,0.242-0.113,0.43-0.12,0.619    c-0.067,1.881-0.097,3.764-0.192,5.643c-0.151,2.977-0.336,5.952-0.53,8.927c-0.028,0.426-0.156,0.853-0.294,1.261    c-0.142,0.423-0.491,0.664-0.933,0.652c-0.445-0.012-0.764-0.285-0.896-0.708c-0.111-0.356-0.191-0.729-0.231-1.1    c-0.05-0.46-0.064-0.925-0.06-1.388c0.068-6.488,0.19-12.977,0.203-19.465c0.015-7.589-0.033-15.179-0.115-22.768    c-0.054-5.041-0.063-10.081,0.165-15.117c0.211-4.658,0.558-9.307,1.172-13.932c0.407-3.062,1.214-6.016,2.597-8.788    c0.424-0.85,0.933-1.672,1.502-2.433c1.645-2.198,3.92-3.31,6.615-3.511c1.592-0.119,3.026,0.423,4.21,1.527    c1.312,1.223,2.292,2.679,2.974,4.337c0.918,2.235,1.461,4.573,1.893,6.939c0.672,3.676,1.123,7.384,1.419,11.106    c0.34,4.27,0.646,8.544,0.875,12.821c0.189,3.526,0.25,7.06,0.354,10.591c0.113,3.85,0.212,7.7,0.312,11.55    c0.075,2.924,0.133,5.849,0.214,8.772c0.094,3.387,0.215,6.772,0.308,10.159c0.085,3.098,0.151,6.196,0.219,9.294    c0.008,0.347,0.005,0.698-0.04,1.041c-0.148,1.124-1.015,1.965-2.057,2.02c-1.041,0.055-1.997-0.692-2.227-1.816    c-0.116-0.564-0.138-1.15-0.16-1.728c-0.153-4.052-0.292-8.104-0.443-12.156C231.374,242.511,231.31,241.82,231.26,241.077z     M214.639,237.942c0.156,0.031,0.265,0.072,0.375,0.072c5.326-0.021,10.652-0.046,15.978-0.074c0.049,0,0.099-0.051,0.231-0.124    c0-0.174,0.005-0.4-0.001-0.624c-0.059-2.287-0.105-4.575-0.185-6.861c-0.193-5.528-0.382-11.056-0.61-16.583    c-0.21-5.092-0.409-10.185-0.725-15.271c-0.271-4.362-0.663-8.717-1.073-13.069c-0.244-2.593-0.704-5.16-1.38-7.682    c-0.425-1.586-1.074-3.052-2.174-4.3c-0.453-0.514-0.977-0.784-1.671-0.75c-1.509,0.075-2.863,0.541-3.845,1.721    c-0.586,0.704-1.102,1.494-1.509,2.315c-0.801,1.617-1.295,3.354-1.563,5.132c-0.366,2.431-0.695,4.872-0.925,7.32    c-0.373,3.976-0.757,7.956-0.943,11.943c-0.185,3.961-0.179,7.934-0.171,11.901c0.016,8.052,0.089,16.104,0.141,24.156    C214.591,237.416,214.621,237.669,214.639,237.942z" fill="#000000" originalFill="#000000"/>
		<path d="M207.223,215.468c0.089,5.839-0.348,11.63-1.705,17.325c-0.955,4.008-2.3,7.892-3.996,11.643    c-1.307,2.892-3.014,5.553-5.234,7.839c-3.117,3.21-6.882,5.343-11.207,6.476c-0.637,0.167-1.307,0.241-1.966,0.283    c-0.868,0.056-1.673-0.579-1.909-1.48c-0.109-0.416-0.167-0.855-0.183-1.286c-0.135-3.443-0.262-6.887-0.376-10.331    c-0.212-6.425-0.419-12.85-0.616-19.275c-0.098-3.184-0.171-6.369-0.254-9.553c-0.184-7.006-0.397-14.011-0.544-21.017    c-0.129-6.137-0.208-12.276-0.257-18.414c-0.012-1.471,0.166-2.946,0.299-4.415c0.038-0.422,0.181-0.849,0.353-1.24    c0.259-0.59,0.742-0.933,1.381-1.08c1.13-0.26,2.242-0.185,3.349,0.115c1.521,0.412,2.969,1.016,4.253,1.92    c1.417,0.998,2.858,1.999,4.115,3.183c6.185,5.826,10.398,12.809,12.264,21.161c1.139,5.097,1.931,10.235,2.14,15.457    c0.019,0.463,0.073,0.924,0.09,1.387C207.236,214.599,207.223,215.034,207.223,215.468z M185.091,254.928    c0.483-0.177,0.904-0.281,1.277-0.476c1.306-0.685,2.614-1.369,3.887-2.112c1.824-1.065,3.339-2.494,4.594-4.186    c1.419-1.912,2.628-3.951,3.562-6.148c2.942-6.923,4.549-14.146,4.812-21.661c0.255-7.293-0.263-14.526-1.885-21.657    c-0.578-2.54-1.169-5.078-2.219-7.479c-2.284-5.227-5.587-9.725-9.777-13.574c-0.913-0.839-1.931-1.572-2.949-2.285    c-0.998-0.699-2.095-1.235-3.285-1.542c-0.373-0.096-0.761-0.137-1.134-0.201c-0.033,0.176-0.06,0.234-0.052,0.287    c0.581,3.901,0.775,7.835,0.95,11.767c0.217,4.859,0.363,9.722,0.537,14.583c0.113,3.154,0.23,6.308,0.335,9.462    c0.182,5.498,0.357,10.996,0.532,16.495c0.115,3.617,0.24,7.234,0.337,10.852c0.152,5.644,0.283,11.289,0.425,16.934    C185.046,254.265,185.07,254.544,185.091,254.928z" fill="#000000" originalFill="#000000"/>
		<path d="M278.949,208.825c0.164-4.746,0.275-9.494,0.508-14.236c0.221-4.484,0.675-8.943,1.839-13.305    c0.655-2.454,1.69-4.744,2.895-6.955c1.426-2.618,3.835-3.841,6.655-4.371c0.415-0.078,0.872-0.031,1.293,0.048    c3.387,0.633,5.821,2.432,7.007,5.758c1.083,3.036,1.811,6.16,2.332,9.335c0.581,3.545,0.915,7.116,1.075,10.705    c0.226,5.06,0.447,10.119,0.697,15.178c0.11,2.224,0.307,4.444,0.426,6.668c0.11,2.052,0.198,4.106,0.243,6.16    c0.117,5.324,0.278,10.649,0.282,15.974c0.003,3.853-0.303,7.703-1.359,11.434c-0.407,1.439-1.035,2.819-1.624,4.2    c-0.235,0.551-0.613,1.048-0.966,1.541c-2.147,2.987-5.375,3.469-8.337,2.383c-1.549-0.568-2.859-1.511-3.988-2.709    c-1.793-1.905-3.06-4.135-4.008-6.554c-1.464-3.732-2.445-7.597-3.111-11.545c-0.65-3.858-0.891-7.761-1.256-11.65    C278.988,220.873,279,214.851,278.949,208.825z M283.737,207.851c-0.079,7.24-0.109,14.475,0.488,21.701    c0.265,3.203,0.491,6.406,1.091,9.567c0.664,3.504,1.565,6.942,2.929,10.247c0.7,1.696,1.596,3.278,2.808,4.668    c0.774,0.888,1.685,1.588,2.81,1.973c1.295,0.443,2.475,0.236,3.437-0.754c0.5-0.514,0.942-1.1,1.328-1.706    c0.835-1.309,1.284-2.783,1.635-4.28c0.763-3.261,0.917-6.595,0.991-9.92c0.107-4.776,0.07-9.556,0.082-14.335    c0.003-1.042-0.02-2.086-0.079-3.126c-0.194-3.409-0.417-6.816-0.614-10.224c-0.1-1.734-0.14-3.471-0.256-5.204    c-0.307-4.562-0.65-9.122-0.961-13.684c-0.221-3.238-0.615-6.452-1.278-9.631c-0.485-2.327-1.104-4.613-2.09-6.788    c-0.657-1.45-1.729-2.429-3.22-2.981c-0.724-0.268-1.413-0.265-2.094,0.091c-1.693,0.886-3.067,2.118-3.789,3.91    c-0.571,1.417-1.068,2.877-1.447,4.357c-0.974,3.806-1.223,7.713-1.369,11.618C283.956,198.183,283.866,203.018,283.737,207.851z" fill="#000000" originalFill="#000000"/>
		<path d="M251.118,201.011c0.161-0.427,0.338-0.849,0.479-1.282c1.44-4.43,2.934-8.844,4.293-13.299    c1.249-4.094,2.349-8.234,3.517-12.353c0.15-0.529,0.302-1.058,0.485-1.575c0.095-0.269,0.227-0.538,0.4-0.763    c0.322-0.42,0.758-0.621,1.299-0.49c0.519,0.126,0.908,0.533,0.899,1.138c-0.013,0.893-0.075,1.795-0.22,2.676    c-0.615,3.746-1.577,7.414-2.594,11.066c-0.52,1.867-1.144,3.708-1.612,5.587c-1.283,5.15-3.168,10.101-4.893,15.106    c-0.147,0.427-0.218,0.901-0.22,1.354c-0.016,3.562,0.039,7.125-0.016,10.687c-0.082,5.298-0.235,10.595-0.361,15.893    c-0.044,1.853-0.108,3.705-0.144,5.557c-0.102,5.269-0.182,10.538-0.305,15.807c-0.015,0.623-0.185,1.259-0.381,1.857    c-0.224,0.687-0.747,1.094-1.495,1.128c-0.746,0.033-1.266-0.336-1.607-0.979c-0.474-0.891-0.657-1.859-0.655-2.851    c0.012-4.865,0.044-9.73,0.076-14.595c0.008-1.332,0.031-2.664,0.058-3.996c0.183-9.091,0.368-18.183,0.555-27.274    c0.012-0.579,0.024-1.16,0.082-1.735c0.076-0.751-0.131-1.411-0.461-2.08c-2.02-4.102-4.121-8.169-5.984-12.341    c-1.602-3.589-2.999-7.276-4.345-10.972c-1.02-2.802-1.595-5.74-2.125-8.675c-0.097-0.536-0.117-1.098-0.084-1.642    c0.053-0.86,0.633-1.513,1.397-1.682c0.726-0.161,1.499,0.16,1.926,0.876c0.234,0.392,0.407,0.833,0.534,1.274    c0.722,2.502,1.379,5.023,2.138,7.513c1.141,3.743,2.628,7.357,4.278,10.901c1.429,3.069,2.901,6.118,4.359,9.174    c0.161,0.337,0.353,0.658,0.531,0.986C250.99,201.007,251.054,201.009,251.118,201.011z" fill="#000000" originalFill="#000000"/>
		<path d="M313.68,238.896c0.729,0,1.307-0.016,1.884,0.003c3.299,0.108,6.598,0.22,9.896,0.344c0.693,0.026,1.389,0.066,2.073,0.17    c0.663,0.102,1.023,0.497,1.102,1.057c0.084,0.59-0.181,1.166-0.784,1.407c-0.472,0.189-1.004,0.31-1.511,0.317    c-3.098,0.046-6.197,0.13-9.291-0.176c-1.062-0.105-2.132-0.122-3.306-0.186c-0.015,0.383-0.037,0.717-0.04,1.051    c-0.029,4.693-0.053,9.385-0.089,14.078c-0.003,0.401-0.036,0.815-0.141,1.2c-0.268,0.988-1.167,1.64-2.124,1.597    c-0.971-0.044-1.81-0.755-2.013-1.746c-0.069-0.337-0.075-0.691-0.075-1.037c0.004-8.14-0.002-16.279,0.026-24.419    c0.036-10.718,0.112-21.436,0.147-32.154c0.018-5.677-0.04-11.355-0.014-17.032c0.011-2.518,0.105-5.038,0.239-7.554    c0.06-1.12,0.269-2.238,0.488-3.342c0.253-1.278,1.171-1.897,2.391-2.053c0.829-0.106,1.678-0.148,2.513-0.107    c1.705,0.084,3.405,0.265,5.11,0.367c1.879,0.112,3.76,0.175,5.64,0.269c1.069,0.053,2.139,0.11,3.206,0.196    c0.614,0.049,1.097,0.337,1.357,0.933c0.221,0.507,0.122,0.968-0.2,1.385c-0.326,0.421-0.803,0.572-1.306,0.586    c-1.505,0.042-3.013,0.125-4.514,0.068c-2.256-0.086-4.507-0.307-6.762-0.413c-1.323-0.062-2.652-0.011-4.063-0.011    c0.044,0.522,0.097,0.942,0.113,1.363c0.079,2.054,0.213,4.108,0.209,6.162c-0.02,10.573-0.084,21.146-0.116,31.719    c-0.02,6.373-0.007,12.745-0.014,19.118c-0.002,1.825-0.02,3.65-0.03,5.475C313.678,237.958,313.68,238.387,313.68,238.896z" fill="#000000" originalFill="#000000"/>
		<path d="M338.858,238.896c0.729,0,1.307-0.016,1.884,0.003c3.299,0.108,6.598,0.22,9.896,0.344    c0.693,0.026,1.389,0.066,2.073,0.17c0.663,0.102,1.023,0.497,1.102,1.057c0.084,0.59-0.181,1.166-0.784,1.407    c-0.472,0.189-1.004,0.31-1.511,0.317c-3.098,0.046-6.197,0.13-9.291-0.176c-1.062-0.105-2.132-0.122-3.306-0.186    c-0.015,0.383-0.037,0.717-0.04,1.051c-0.029,4.693-0.053,9.385-0.089,14.078c-0.003,0.401-0.036,0.815-0.141,1.2    c-0.268,0.988-1.167,1.64-2.124,1.597c-0.971-0.044-1.81-0.755-2.013-1.746c-0.069-0.337-0.075-0.691-0.075-1.037    c0.004-8.14-0.002-16.279,0.026-24.419c0.036-10.718,0.112-21.436,0.147-32.154c0.018-5.677-0.04-11.355-0.014-17.032    c0.011-2.518,0.105-5.038,0.239-7.554c0.06-1.12,0.269-2.238,0.488-3.342c0.253-1.278,1.171-1.897,2.391-2.053    c0.829-0.106,1.678-0.148,2.513-0.107c1.705,0.084,3.405,0.265,5.11,0.367c1.879,0.112,3.76,0.175,5.64,0.269    c1.069,0.053,2.139,0.11,3.206,0.196c0.614,0.049,1.097,0.337,1.357,0.933c0.221,0.507,0.122,0.968-0.2,1.385    c-0.326,0.421-0.803,0.572-1.306,0.586c-1.505,0.042-3.013,0.125-4.514,0.068c-2.256-0.086-4.507-0.307-6.762-0.413    c-1.323-0.062-2.652-0.011-4.063-0.011c0.044,0.522,0.097,0.942,0.113,1.363c0.079,2.054,0.213,4.108,0.209,6.162    c-0.02,10.573-0.084,21.146-0.116,31.719c-0.02,6.373-0.007,12.745-0.014,19.118c-0.002,1.825-0.02,3.65-0.03,5.475    C338.856,237.958,338.858,238.387,338.858,238.896z" fill="#000000" originalFill="#000000"/>
	</g>
</g>
</svg>